<svg width="638" height="552" viewBox="0 0 638 552" fill="none" xmlns="http://www.w3.org/2000/svg">
<g clip-path="url(#clip0_52_78)">
<path d="M77.3966 551.61H517.512C568.97 551.61 594.907 525.461 594.907 475.049V433.003H497.849C432.374 433.003 392.421 392.841 392.421 335.107C392.421 277.166 432.374 237.004 497.849 237.004H594.907V194.957C594.907 144.545 568.97 118.397 517.512 118.397H77.3966C26.1474 118.397 0 144.336 0 194.957V475.049C0 525.671 26.1474 551.61 77.3966 551.61ZM490.945 363.348C475.257 363.348 462.497 350.588 462.497 335.107C462.497 319.419 475.257 306.869 490.945 306.869C506.633 306.869 519.185 319.419 519.185 335.107C519.185 350.588 506.633 363.348 490.945 363.348ZM497.849 401.21H592.607C616.244 401.21 630.259 385.102 630.259 363.975V306.032C630.259 284.905 616.244 268.797 592.607 268.797H497.849C452.665 268.797 424.217 292.434 424.217 335.107C424.217 377.78 452.665 401.21 497.849 401.21ZM167.344 85.1379H505.38C505.38 81.3727 505.38 77.6075 505.38 73.8423C503.287 19.8737 464.59 1.04753 409.992 16.736L167.344 85.1379Z" fill="#22C55E"/>
<path d="M224.496 456.108C266.715 456.108 304.772 436.485 304.772 393.67C304.772 356.407 274.842 341.738 239.956 333.611L215.774 327.863C193.773 322.709 172.96 313.196 172.96 291.194C172.96 265.823 200.115 254.723 224.496 254.723C250.263 254.723 269.49 266.021 275.833 288.419C278.212 295.357 282.572 298.726 288.717 298.726C294.662 298.726 301.005 294.96 301.005 287.23C301.005 255.912 261.164 232.127 224.496 232.127C184.655 232.127 147.589 254.326 147.589 292.978C147.589 329.846 178.907 344.117 210.225 351.649L234.606 357.397C258.193 362.948 279.6 371.471 279.6 395.653C279.6 424.195 252.047 433.907 224.891 433.907C196.745 433.907 176.33 423.799 168.203 398.428C165.428 391.49 161.662 388.715 155.517 388.715C148.778 388.715 143.427 393.075 143.427 400.411C143.427 402.787 143.823 405.365 144.616 407.941C153.932 441.638 190.799 456.108 224.496 456.108ZM224.1 486.632C228.263 486.632 231.829 483.263 231.829 478.901V210.521C231.829 206.161 228.263 202.791 224.1 202.791C219.937 202.791 216.369 206.161 216.369 210.521V478.901C216.369 483.263 219.937 486.632 224.1 486.632Z" fill="white"/>
</g>
<defs>
<clipPath id="clip0_52_78">
<rect width="638" height="551.609" fill="white"/>
</clipPath>
</defs>
</svg>
